<?xml version="1.0" encoding="UTF-8" standalone="no"?>
<!-- Generator: Adobe Illustrator 22.1.0, SVG Export Plug-In . SVG Version: 6.00 Build 0)  -->

<svg
   xmlns:dc="http://purl.org/dc/elements/1.1/"
   xmlns:cc="http://creativecommons.org/ns#"
   xmlns:rdf="http://www.w3.org/1999/02/22-rdf-syntax-ns#"
   xmlns:svg="http://www.w3.org/2000/svg"
   xmlns="http://www.w3.org/2000/svg"
   xmlns:xlink="http://www.w3.org/1999/xlink"
   xmlns:sodipodi="http://sodipodi.sourceforge.net/DTD/sodipodi-0.dtd"
   xmlns:inkscape="http://www.inkscape.org/namespaces/inkscape"
   version="1.1"
   id="Layer_1"
   x="0px"
   y="0px"
   viewBox="0 0 500 225"
   xml:space="preserve"
   sodipodi:docname="Go-Logo_Pride_45svg.svg"
   inkscape:version="0.92.2 5c3e80d, 2017-08-06"
   width="500"
   height="225"><metadata
     id="metadata48"><rdf:RDF><cc:Work
         rdf:about=""><dc:format>image/svg+xml</dc:format><dc:type
           rdf:resource="http://purl.org/dc/dcmitype/StillImage" /><dc:title></dc:title></cc:Work></rdf:RDF></metadata><defs
     id="defs46"><linearGradient
       inkscape:collect="always"
       id="linearGradient2655-4-5"><stop
         id="stop2653"
         offset="0"
         style="stop-color:#e40303;stop-opacity:1" /><stop
         id="stop2700"
         offset="0.16799998"
         style="stop-color:#e40303;stop-opacity:1" /><stop
         id="stop3146"
         offset="0.17000002"
         style="stop-color:#ff8c00;stop-opacity:1" /><stop
         style="stop-color:#ff8c00;stop-opacity:1"
         offset="0.33399999"
         id="stop2696" /><stop
         style="stop-color:#ffed00;stop-opacity:1"
         offset="0.33399999"
         id="stop3148" /><stop
         id="stop3018"
         offset="0.5"
         style="stop-color:#ffed00;stop-opacity:1" /><stop
         style="stop-color:#008026;stop-opacity:1"
         offset="0.5"
         id="stop2698" /><stop
         id="stop2694"
         offset="0.66999999"
         style="stop-color:#008026;stop-opacity:1" /><stop
         id="stop3150"
         offset="0.66999999"
         style="stop-color:#004dff;stop-opacity:1" /><stop
         style="stop-color:#004dff;stop-opacity:1"
         offset="0.83400001"
         id="stop2692" /><stop
         style="stop-color:#750787;stop-opacity:1"
         offset="0.83400001"
         id="stop3152" /><stop
         id="stop2651"
         offset="1"
         style="stop-color:#750787;stop-opacity:1" /></linearGradient><linearGradient
       inkscape:collect="always"
       xlink:href="#linearGradient2655-4-5"
       id="linearGradient3016"
       gradientUnits="userSpaceOnUse"
       x1="127.46574"
       y1="78.228294"
       x2="127.42286"
       y2="153.11761"
       spreadMethod="pad" /><linearGradient
       inkscape:collect="always"
       xlink:href="#linearGradient2655-4-5"
       id="linearGradient3263"
       gradientUnits="userSpaceOnUse"
       x1="127.46574"
       y1="78.228294"
       x2="127.42286"
       y2="153.11761"
       spreadMethod="pad" /><linearGradient
       inkscape:collect="always"
       xlink:href="#linearGradient2655-4-5"
       id="linearGradient3265"
       gradientUnits="userSpaceOnUse"
       x1="127.46574"
       y1="78.228294"
       x2="127.42286"
       y2="153.11761"
       spreadMethod="pad" /><linearGradient
       inkscape:collect="always"
       xlink:href="#linearGradient2655-4-5"
       id="linearGradient3267"
       gradientUnits="userSpaceOnUse"
       x1="127.46574"
       y1="78.228294"
       x2="127.42286"
       y2="153.11761"
       spreadMethod="pad" /><linearGradient
       inkscape:collect="always"
       xlink:href="#linearGradient2655-4-5"
       id="linearGradient3269"
       gradientUnits="userSpaceOnUse"
       x1="127.46574"
       y1="78.228294"
       x2="127.42286"
       y2="153.11761"
       spreadMethod="pad" /><linearGradient
       inkscape:collect="always"
       xlink:href="#linearGradient2655-4-5"
       id="linearGradient3271"
       gradientUnits="userSpaceOnUse"
       x1="127.46574"
       y1="78.228294"
       x2="127.42286"
       y2="153.11761"
       spreadMethod="pad" /><linearGradient
       inkscape:collect="always"
       xlink:href="#linearGradient2655-4-5"
       id="linearGradient3273"
       gradientUnits="userSpaceOnUse"
       x1="127.46574"
       y1="78.228294"
       x2="127.42286"
       y2="153.11761"
       spreadMethod="pad" /><linearGradient
       inkscape:collect="always"
       xlink:href="#linearGradient2655-4-5"
       id="linearGradient3275"
       gradientUnits="userSpaceOnUse"
       x1="127.46574"
       y1="78.228294"
       x2="127.42286"
       y2="153.11761"
       spreadMethod="pad" /><linearGradient
       inkscape:collect="always"
       xlink:href="#linearGradient2655-4-5"
       id="linearGradient3277"
       gradientUnits="userSpaceOnUse"
       x1="127.46574"
       y1="78.228294"
       x2="127.42286"
       y2="153.11761"
       spreadMethod="pad" /><linearGradient
       inkscape:collect="always"
       xlink:href="#linearGradient2655-4-5"
       id="linearGradient3279"
       gradientUnits="userSpaceOnUse"
       x1="127.46574"
       y1="78.228294"
       x2="127.42286"
       y2="153.11761"
       spreadMethod="pad" /><linearGradient
       inkscape:collect="always"
       xlink:href="#linearGradient2655-4-5"
       id="linearGradient3281"
       gradientUnits="userSpaceOnUse"
       x1="127.46574"
       y1="78.228294"
       x2="127.42286"
       y2="153.11761"
       spreadMethod="pad" /><linearGradient
       inkscape:collect="always"
       xlink:href="#linearGradient2655-4-5"
       id="linearGradient3283"
       gradientUnits="userSpaceOnUse"
       x1="127.46574"
       y1="78.228294"
       x2="127.42286"
       y2="153.11761"
       spreadMethod="pad" /><linearGradient
       inkscape:collect="always"
       xlink:href="#linearGradient2655-4-5"
       id="linearGradient3285"
       gradientUnits="userSpaceOnUse"
       x1="127.46574"
       y1="78.228294"
       x2="127.42286"
       y2="153.11761"
       spreadMethod="pad" /><linearGradient
       inkscape:collect="always"
       xlink:href="#linearGradient2655-4-5"
       id="linearGradient3287"
       gradientUnits="userSpaceOnUse"
       x1="127.46574"
       y1="78.228294"
       x2="127.42286"
       y2="153.11761"
       spreadMethod="pad" /><linearGradient
       inkscape:collect="always"
       xlink:href="#linearGradient2655-4-5"
       id="linearGradient3289"
       gradientUnits="userSpaceOnUse"
       x1="127.46574"
       y1="78.228294"
       x2="127.42286"
       y2="153.11761"
       spreadMethod="pad" /><linearGradient
       inkscape:collect="always"
       xlink:href="#linearGradient2655-4-5"
       id="linearGradient3291"
       gradientUnits="userSpaceOnUse"
       x1="127.46574"
       y1="78.228294"
       x2="127.42286"
       y2="153.11761"
       spreadMethod="pad" /><linearGradient
       inkscape:collect="always"
       xlink:href="#linearGradient2655-4-5"
       id="linearGradient3293"
       gradientUnits="userSpaceOnUse"
       x1="127.46574"
       y1="78.228294"
       x2="127.42286"
       y2="153.11761"
       spreadMethod="pad" /><linearGradient
       inkscape:collect="always"
       xlink:href="#linearGradient2655-4-5"
       id="linearGradient3295"
       gradientUnits="userSpaceOnUse"
       x1="127.46574"
       y1="78.228294"
       x2="127.42286"
       y2="153.11761"
       spreadMethod="pad" /><linearGradient
       inkscape:collect="always"
       xlink:href="#linearGradient2655-4-5"
       id="linearGradient3297"
       gradientUnits="userSpaceOnUse"
       x1="127.46574"
       y1="78.228294"
       x2="127.42286"
       y2="153.11761"
       spreadMethod="pad" /><linearGradient
       inkscape:collect="always"
       xlink:href="#linearGradient2655-4-5"
       id="linearGradient3299"
       gradientUnits="userSpaceOnUse"
       x1="127.46574"
       y1="78.228294"
       x2="127.42286"
       y2="153.11761"
       spreadMethod="pad" /></defs><sodipodi:namedview
     pagecolor="#ffffff"
     bordercolor="#666666"
     borderopacity="1"
     objecttolerance="10"
     gridtolerance="10"
     guidetolerance="10"
     inkscape:pageopacity="0"
     inkscape:pageshadow="2"
     inkscape:window-width="1920"
     inkscape:window-height="1097"
     id="namedview44"
     showgrid="false"
     inkscape:zoom="2.8284271"
     inkscape:cx="200.08248"
     inkscape:cy="90.611437"
     inkscape:window-x="0"
     inkscape:window-y="1"
     inkscape:window-maximized="1"
     inkscape:current-layer="layer2" /><style
     type="text/css"
     id="style2">
	.st0{fill:#2DBCAF;}
	.st1{fill:#5DC9E1;}
	.st2{fill:#FDDD00;}
	.st3{fill:#CE3262;}
	.st4{fill:#00ACD7;}
	.st5{fill:#FFFFFF;}
</style><g
     inkscape:groupmode="layer"
     id="layer1"
     inkscape:label="flag" /><g
     inkscape:groupmode="layer"
     id="layer2"
     inkscape:label="go"><g
       id="g41"
       style="fill:url(#linearGradient3016);fill-opacity:1;stroke:none"
       transform="matrix(2.3771839,0,0,2.3771839,-57.004426,-179.01473)"
       inkscape:export-filename="/Users/thoeni/Downloads/g41.png"
       inkscape:export-xdpi="299.9809"
       inkscape:export-ydpi="299.9809"><g
         id="g10"
         style="fill:url(#linearGradient3269);fill-opacity:1;stroke:none"><g
           id="g8"
           style="fill:url(#linearGradient3267);fill-opacity:1;stroke:none"><g
             id="g6"
             style="fill:url(#linearGradient3265);fill-opacity:1;stroke:none"><path
               class="st1"
               d="m 40.2,101.1 c -0.4,0 -0.5,-0.2 -0.3,-0.5 L 42,97.9 c 0.2,-0.3 0.7,-0.5 1.1,-0.5 h 35.7 c 0.4,0 0.5,0.3 0.3,0.6 l -1.7,2.6 c -0.2,0.3 -0.7,0.6 -1,0.6 z"
               id="path4"
               style="fill:url(#linearGradient3263);fill-opacity:1;stroke:none"
               inkscape:connector-curvature="0" /></g></g></g><g
         id="g18"
         style="fill:url(#linearGradient3277);fill-opacity:1;stroke:none"><g
           id="g16"
           style="fill:url(#linearGradient3275);fill-opacity:1;stroke:none"><g
             id="g14"
             style="fill:url(#linearGradient3273);fill-opacity:1;stroke:none"><path
               class="st1"
               d="m 25.1,110.3 c -0.4,0 -0.5,-0.2 -0.3,-0.5 l 2.1,-2.7 c 0.2,-0.3 0.7,-0.5 1.1,-0.5 h 45.6 c 0.4,0 0.6,0.3 0.5,0.6 l -0.8,2.4 c -0.1,0.4 -0.5,0.6 -0.9,0.6 z"
               id="path12"
               style="fill:url(#linearGradient3271);fill-opacity:1;stroke:none"
               inkscape:connector-curvature="0" /></g></g></g><g
         id="g26"
         style="fill:url(#linearGradient3285);fill-opacity:1;stroke:none"><g
           id="g24"
           style="fill:url(#linearGradient3283);fill-opacity:1;stroke:none"><g
             id="g22"
             style="fill:url(#linearGradient3281);fill-opacity:1;stroke:none"><path
               class="st1"
               d="m 49.3,119.5 c -0.4,0 -0.5,-0.3 -0.3,-0.6 l 1.4,-2.5 c 0.2,-0.3 0.6,-0.6 1,-0.6 h 20 c 0.4,0 0.6,0.3 0.6,0.7 l -0.2,2.4 c 0,0.4 -0.4,0.7 -0.7,0.7 z"
               id="path20"
               style="fill:url(#linearGradient3279);fill-opacity:1;stroke:none"
               inkscape:connector-curvature="0" /></g></g></g><g
         id="g39"
         style="fill:url(#linearGradient3299);fill-opacity:1;stroke:none"><g
           id="CXHf1q_7_"
           style="fill:url(#linearGradient3297);fill-opacity:1;stroke:none"><g
             id="g36"
             style="fill:url(#linearGradient3295);fill-opacity:1;stroke:none"><g
               id="g30"
               style="fill:url(#linearGradient3289);fill-opacity:1;stroke:none"><path
                 class="st1"
                 d="m 153.1,99.3 c -6.3,1.6 -10.6,2.8 -16.8,4.4 -1.5,0.4 -1.6,0.5 -2.9,-1 -1.5,-1.7 -2.6,-2.8 -4.7,-3.8 -6.3,-3.1 -12.4,-2.2 -18.1,1.5 -6.8,4.4 -10.3,10.9 -10.2,19 0.1,8 5.6,14.6 13.5,15.7 6.8,0.9 12.5,-1.5 17,-6.6 0.9,-1.1 1.7,-2.3 2.7,-3.7 -3.6,0 -8.1,0 -19.3,0 -2.1,0 -2.6,-1.3 -1.9,-3 1.3,-3.1 3.7,-8.3 5.1,-10.9 0.3,-0.6 1,-1.6 2.5,-1.6 5.1,0 23.9,0 36.4,0 -0.2,2.7 -0.2,5.4 -0.6,8.1 -1.1,7.2 -3.8,13.8 -8.2,19.6 -7.2,9.5 -16.6,15.4 -28.5,17 -9.8,1.3 -18.9,-0.6 -26.9,-6.6 -7.4,-5.6 -11.6,-13 -12.7,-22.2 -1.3,-10.9 1.9,-20.7 8.5,-29.3 7.1,-9.3 16.5,-15.2 28,-17.3 9.4,-1.7 18.4,-0.6 26.5,4.9 5.3,3.5 9.1,8.3 11.6,14.1 0.6,0.9 0.2,1.4 -1,1.7 z"
                 id="path28"
                 style="fill:url(#linearGradient3287);fill-opacity:1;stroke:none"
                 inkscape:connector-curvature="0" /></g><g
               id="g34"
               style="fill:url(#linearGradient3293);fill-opacity:1;stroke:none"><path
                 class="st1"
                 d="m 186.2,154.6 c -9.1,-0.2 -17.4,-2.8 -24.4,-8.8 -5.9,-5.1 -9.6,-11.6 -10.8,-19.3 -1.8,-11.3 1.3,-21.3 8.1,-30.2 7.3,-9.6 16.1,-14.6 28,-16.7 10.2,-1.8 19.8,-0.8 28.5,5.1 7.9,5.4 12.8,12.7 14.1,22.3 1.7,13.5 -2.2,24.5 -11.5,33.9 -6.6,6.7 -14.7,10.9 -24,12.8 -2.7,0.5 -5.4,0.6 -8,0.9 z M 210,114.2 c -0.1,-1.3 -0.1,-2.3 -0.3,-3.3 -1.8,-9.9 -10.9,-15.5 -20.4,-13.3 -9.3,2.1 -15.3,8 -17.5,17.4 -1.8,7.8 2,15.7 9.2,18.9 5.5,2.4 11,2.1 16.3,-0.6 7.9,-4.1 12.2,-10.5 12.7,-19.1 z"
                 id="path32"
                 style="fill:url(#linearGradient3291);fill-opacity:1;stroke:none"
                 inkscape:connector-curvature="0" /></g></g></g></g></g></g></svg>